# Blender v2.79 (sub 0) OBJ File: 'glassesBranchesBent.blend'
# www.blender.org
o Stick
v 100.268028 -9.244358 19.249527
v 114.652435 -9.244358 -94.387100
v 100.268036 82.103104 19.249527
v 114.652435 82.103104 -94.387100
v -100.603683 -9.244358 19.285561
v -109.969254 -9.244358 -94.837410
v -100.603676 82.103104 19.285561
v -109.969254 82.103104 -94.837410
vt 0.996424 0.017167
vt 0.477013 0.017167
vt 0.477013 0.937972
vt 0.996424 0.937972
vt 0.995189 0.024294
vt 0.995189 0.942281
vt 0.475382 0.942281
vt 0.475382 0.024294
vn 0.9921 0.0000 0.1256
vn -0.9966 0.0000 0.0818
s off
f 1/1/1 2/2/1 4/3/1 3/4/1
f 5/5/2 7/6/2 8/7/2 6/8/2
o Frame
v -101.089729 -9.479126 17.382948
v 101.628044 -9.479126 17.382948
v -101.089729 82.203484 17.382952
v 101.628044 82.203484 17.382952
vt 0.000100 0.059704
vt 0.999900 0.059704
vt 0.999900 0.940296
vt 0.000100 0.940296
vn 0.0000 -0.0000 1.0000
s off
f 9/9/3 10/10/3 12/11/3 11/12/3
